<?xml version="1.0" encoding="UTF-8" standalone="no"?>
<!DOCTYPE svg PUBLIC "-//W3C//DTD SVG 1.1//EN"
 "http://www.w3.org/Graphics/SVG/1.1/DTD/svg11.dtd">
<!-- Generated by graphviz version 2.40.1 (20161225.0304)
 -->
<!-- Title: G Pages: 1 -->
<svg width="112pt" height="130pt"
 viewBox="0.00 0.00 111.61 130.00" xmlns="http://www.w3.org/2000/svg" xmlns:xlink="http://www.w3.org/1999/xlink">
<g id="graph0" class="graph" transform="scale(1 1) rotate(0) translate(4 126)">
<title>G</title>
<polygon fill="#ffffff" stroke="transparent" points="-4,4 -4,-126 107.6064,-126 107.6064,4 -4,4"/>
<g id="clust1" class="cluster">
<title>cluster_Global</title>
<path fill="none" stroke="#c0c0c0" d="M20,-8C20,-8 83.6064,-8 83.6064,-8 89.6064,-8 95.6064,-14 95.6064,-20 95.6064,-20 95.6064,-102 95.6064,-102 95.6064,-108 89.6064,-114 83.6064,-114 83.6064,-114 20,-114 20,-114 14,-114 8,-108 8,-102 8,-102 8,-20 8,-20 8,-14 14,-8 20,-8"/>
<text text-anchor="middle" x="51.8032" y="-101.2" font-family="Times,serif" font-size="11.00" fill="#c0c0c0">Global</text>
</g>
<g id="clust2" class="cluster">
<title>cluster_\BaaS</title>
<path fill="none" stroke="#c0c0c0" d="M28,-16C28,-16 75.6064,-16 75.6064,-16 81.6064,-16 87.6064,-22 87.6064,-28 87.6064,-28 87.6064,-75 87.6064,-75 87.6064,-81 81.6064,-87 75.6064,-87 75.6064,-87 28,-87 28,-87 22,-87 16,-81 16,-75 16,-75 16,-28 16,-28 16,-22 22,-16 28,-16"/>
<text text-anchor="middle" x="51.8032" y="-74.2" font-family="Times,serif" font-size="11.00" fill="#c0c0c0">BaaS</text>
</g>
<!-- \\BaaS\\Server -->
<g id="node1" class="node">
<title>\\BaaS\\Server</title>
<polygon fill="none" stroke="#000000" points="79.4111,-60 24.1954,-60 24.1954,-24 79.4111,-24 79.4111,-60"/>
<text text-anchor="middle" x="51.8032" y="-38.7" font-family="Courier,monospace" font-size="11.00" fill="#000000">Server</text>
</g>
</g>
</svg>
